<?xml version="1.0" encoding="UTF-8" standalone="no"?>
<svg
   width="700pt"
   height="700pt"
   version="1.1"
   viewBox="0 0 700 700"
   id="svg54"
   sodipodi:docname="logo.svg"
   inkscape:version="1.1.2 (0a00cf5339, 2022-02-04, custom)"
   xmlns:inkscape="http://www.inkscape.org/namespaces/inkscape"
   xmlns:sodipodi="http://sodipodi.sourceforge.net/DTD/sodipodi-0.dtd"
   xmlns="http://www.w3.org/2000/svg"
   xmlns:svg="http://www.w3.org/2000/svg">
  <sodipodi:namedview
     id="namedview56"
     pagecolor="#ffffff"
     bordercolor="#666666"
     borderopacity="1.0"
     inkscape:pageshadow="2"
     inkscape:pageopacity="0.0"
     inkscape:pagecheckerboard="0"
     inkscape:document-units="pt"
     showgrid="false"
     inkscape:zoom="0.93535714"
     inkscape:cx="466.66667"
     inkscape:cy="466.13211"
     inkscape:window-width="1440"
     inkscape:window-height="2507"
     inkscape:window-x="-1448"
     inkscape:window-y="-887"
     inkscape:window-maximized="1"
     inkscape:current-layer="g52" />
  <defs
     id="defs26">
    <symbol
       id="h"
       overflow="visible">
      <path
         d="m39.078-2.3281c-2.0117 1.043-4.1094 1.8281-6.2969 2.3594s-4.4648 0.79688-6.8281 0.79688c-7.0859 0-12.699-1.9766-16.844-5.9375-4.1367-3.957-6.2031-9.3281-6.2031-16.109 0-6.7891 2.0664-12.164 6.2031-16.125 4.1445-3.9688 9.7578-5.9531 16.844-5.9531 2.3633 0 4.6406 0.26562 6.8281 0.79688s4.2852 1.3242 6.2969 2.375v8.7969c-2.0312-1.3828-4.0391-2.3984-6.0156-3.0469-1.9688-0.64453-4.0469-0.96875-6.2344-0.96875-3.9062 0-6.9844 1.2578-9.2344 3.7656-2.2422 2.5-3.3594 5.9531-3.3594 10.359 0 4.3867 1.1172 7.8359 3.3594 10.344 2.25 2.5 5.3281 3.75 9.2344 3.75 2.1875 0 4.2656-0.32031 6.2344-0.96875 1.9766-0.64453 3.9844-1.6602 6.0156-3.0469z"
         id="path2" />
    </symbol>
    <symbol
       id="g"
       overflow="visible">
      <path
         d="m16.031-40.953v9.0625h10.516v7.2812h-10.516v13.531c0 1.4805 0.28906 2.4805 0.875 3 0.59375 0.52344 1.7656 0.78125 3.5156 0.78125h5.2344v7.2969h-8.7344c-4.0312 0-6.8867-0.83594-8.5625-2.5156-1.6797-1.6875-2.5156-4.5391-2.5156-8.5625v-13.531h-5.0781v-7.2812h5.0781v-9.0625z"
         id="path5" />
    </symbol>
    <symbol
       id="f"
       overflow="visible">
      <path
         d="m26.594-27.234v-17.078h10.266v44.312h-10.266v-4.6094c-1.3984 1.875-2.9453 3.25-4.6406 4.125-1.6875 0.875-3.6406 1.3125-5.8594 1.3125-3.9297 0-7.1562-1.5625-9.6875-4.6875-2.5234-3.125-3.7812-7.1445-3.7812-12.062 0-4.9141 1.2578-8.9375 3.7812-12.062 2.5312-3.125 5.7578-4.6875 9.6875-4.6875 2.1953 0 4.1445 0.44531 5.8438 1.3281 1.707 0.88672 3.2578 2.2578 4.6562 4.1094zm-6.7188 20.656c2.1875 0 3.8516-0.79688 5-2.3906 1.1445-1.5938 1.7188-3.9102 1.7188-6.9531 0-3.0391-0.57422-5.3594-1.7188-6.9531-1.1484-1.5938-2.8125-2.3906-5-2.3906-2.168 0-3.8242 0.79688-4.9688 2.3906-1.1484 1.5938-1.7188 3.9141-1.7188 6.9531 0 3.043 0.57031 5.3594 1.7188 6.9531 1.1445 1.5938 2.8008 2.3906 4.9688 2.3906z"
         id="path8" />
    </symbol>
    <symbol
       id="e"
       overflow="visible">
      <path
         d="m21.875-6.5781c2.1758 0 3.8359-0.79688 4.9844-2.3906 1.1562-1.5938 1.7344-3.9102 1.7344-6.9531 0-3.0391-0.57812-5.3594-1.7344-6.9531-1.1484-1.5938-2.8086-2.3906-4.9844-2.3906-2.1875 0-3.8672 0.80469-5.0312 2.4062-1.168 1.6055-1.75 3.918-1.75 6.9375 0 3.0234 0.58203 5.3359 1.75 6.9375 1.1641 1.6055 2.8438 2.4062 5.0312 2.4062zm-6.7812-20.656c1.4062-1.8516 2.9609-3.2227 4.6719-4.1094 1.707-0.88281 3.6719-1.3281 5.8906-1.3281 3.9375 0 7.1641 1.5625 9.6875 4.6875 2.5195 3.125 3.7812 7.1484 3.7812 12.062 0 4.918-1.2617 8.9375-3.7812 12.062-2.5234 3.125-5.75 4.6875-9.6875 4.6875-2.2188 0-4.1836-0.44531-5.8906-1.3281-1.7109-0.88281-3.2656-2.2539-4.6719-4.1094v4.6094h-10.188v-44.312h10.188z"
         id="path11" />
    </symbol>
    <symbol
       id="d"
       overflow="visible">
      <path
         d="m16.312-34.234v25.953h3.9375c4.4766 0 7.8984-1.1094 10.266-3.3281 2.3633-2.2266 3.5469-5.457 3.5469-9.6875 0-4.2188-1.1797-7.4258-3.5312-9.625-2.3555-2.207-5.7812-3.3125-10.281-3.3125zm-10.953-8.2812h11.562c6.4453 0 11.25 0.46094 14.406 1.375 3.1641 0.91797 5.8789 2.4805 8.1406 4.6875 2 1.918 3.4844 4.1328 4.4531 6.6406 0.96875 2.5 1.4531 5.3398 1.4531 8.5156 0 3.2109-0.48438 6.0742-1.4531 8.5938-0.96875 2.5117-2.4531 4.7266-4.4531 6.6406-2.2734 2.1992-5.0078 3.7617-8.2031 4.6875-3.1875 0.91797-7.9688 1.375-14.344 1.375h-11.562z"
         id="path14" />
    </symbol>
    <symbol
       id="c"
       overflow="visible">
      <path
         d="m4.9062-31.891h10.188v31.891h-10.188zm0-12.422h10.188v8.3125h-10.188z"
         id="path17" />
    </symbol>
    <symbol
       id="b"
       overflow="visible">
      <path
         d="m4.9062-44.312h10.188v44.312h-10.188z"
         id="path20" />
    </symbol>
    <symbol
       id="a"
       overflow="visible">
      <path
         d="m0.28125-42.516h39.188v8.2812h-14.094v34.234h-10.969v-34.234h-14.125z"
         id="path23" />
    </symbol>
  </defs>
  <g
     id="g52">
    <path
       d="M 552.23359,169.37016 C 544.95068,127.41659 523.09546,89.373215 490.51365,61.953841 457.93183,34.529817 416.71598,19.491936 374.13164,19.479537 315.63842,19.709592 260.81362,48.030279 226.77187,95.601933 215.80211,93.059302 204.57848,91.787986 193.3237,91.806119 c -51.68332,0 -99.430105,27.569711 -125.274865,72.320691 -25.83856,44.75719 -25.83856,99.8966 0,144.65379 25.84476,44.75098 73.591545,72.32069 125.274865,72.32069 h 18.07708 c 9.98904,0 18.08327,-8.09423 18.08327,-18.07707 0,-9.98904 -8.09423,-18.08327 -18.08327,-18.08327 H 193.3237 C 161.56484,344.58376 131.56036,330.32663 111.21901,305.92893 90.883849,281.5379 82.256014,249.45668 87.615284,218.15191 c 5.363764,-31.30477 24.174056,-58.68695 51.464796,-74.93058 27.29694,-16.23744 60.33441,-19.69974 90.40397,-9.46846 l 13.92418,4.87944 7.59163,-12.65891 c 21.00158,-34.864699 55.7206,-59.268128 95.6346,-67.223342 39.9202,-7.954905 81.34063,1.271331 114.10533,25.426309 32.75849,24.149263 53.83137,60.982233 58.04532,101.465013 l 1.26529,13.37927 13.19762,2.53054 v 0.006 c 23.93694,4.52237 43.98228,20.78926 53.34163,43.28021 9.3595,22.49095 6.76836,48.17763 -6.89545,68.35006 -13.65777,20.16623 -36.554,32.09827 -60.90938,31.75267 h -18.08328 c -9.98299,0 -18.08327,8.09423 -18.08327,18.08327 0,9.98299 8.10028,18.07707 18.08327,18.07707 h 18.08328 c 34.76861,0.0423 67.44806,-16.5815 87.88551,-44.70294 20.44364,-28.12609 26.16557,-64.34843 15.38922,-97.40294 -10.77604,-33.05451 -36.74153,-58.94732 -69.82703,-69.62711 z"
       id="path28"
       style="stroke-width:1.54982;fill:#ffffff" />
    <path
       d="m 518.78852,525.76623 c 9.983,0 18.07707,-8.10027 18.07707,-18.08327 0,-9.98299 -8.09423,-18.08327 -18.07707,-18.08327 h -36.16655 v -18.07707 c 0,-9.59555 -3.8079,-18.79154 -10.58835,-25.572 -6.78045,-6.78045 -15.98172,-10.5944 -25.57199,-10.5944 H 265.6444 c -9.5895,0 -18.78534,3.81395 -25.5658,10.5944 -6.78649,6.78046 -10.59439,15.97707 -10.59439,25.572 v 18.08327 l -36.16035,-0.006 c -9.98904,0 -18.08327,8.10028 -18.08327,18.08327 0,9.983 8.09423,18.08327 18.08327,18.08327 h 36.16035 v 18.08328 l -36.16035,-0.006 c -9.98904,0 -18.08327,8.10028 -18.08327,18.08327 0,9.983 8.09423,18.08327 18.08327,18.08327 h 36.16035 v 18.08328 l -36.16035,-0.006 c -9.98904,0 -18.08327,8.10027 -18.08327,18.08327 0,9.983 8.09423,18.08327 18.08327,18.08327 h 36.16035 v 18.08328 -0.006 c 0,9.59554 3.8079,18.79154 10.59439,25.57199 6.78046,6.78045 15.97707,10.5944 25.5658,10.5944 h 180.81723 c 9.58949,0 18.79154,-3.81395 25.57199,-10.5944 6.78045,-6.78045 10.58835,-15.97707 10.58835,-25.57199 v -18.07788 h 36.16655 c 9.983,0 18.07707,-8.10027 18.07707,-18.08327 0,-9.983 -8.09423,-18.08327 -18.07707,-18.08327 h -36.16655 v -18.07708 h 36.16655 c 9.983,0 18.07707,-8.10027 18.07707,-18.08327 0,-9.98299 -8.09423,-18.08327 -18.07707,-18.08327 H 482.62197 V 525.76623 Z M 265.6413,652.33055 V 471.52881 h 180.81723 v 180.80174 z"
       id="path30"
       style="stroke-width:1.54982;fill:#ffffff" />
    <path
       d="m 301.81404,489.59349 h 108.48724 c 9.983,0 18.08327,9.983 18.08327,18.08327 V 616.164 c 0,9.983 -8.09423,18.08327 -18.08327,18.08327 H 301.81404 c -9.98299,0 -18.08327,-9.98299 -18.08327,-18.08327 V 507.67676 c 0,-9.98299 8.09423,-18.08327 18.08327,-18.08327 z"
       id="path32"
       style="stroke-width:1.54982;fill:#ffffff" />
    <path
       d="m 356.05766,218.37539 c -9.98904,0 -18.08327,8.10028 -18.08327,18.08328 V 344.9459 h -26.75915 c -4.87341,-0.17556 -9.3716,2.5851 -11.42386,7.00441 -2.05227,4.41946 -1.25317,9.638 2.02204,13.24613 l 18.08328,18.08328 27.48446,29.47133 h -0.006 c 2.33077,2.5245 5.606,3.95932 9.03854,3.95932 3.43874,0 6.71381,-1.43479 9.04458,-3.95932 l 26.75915,-29.11333 18.08328,-18.08327 v 0.006 c 3.54164,-3.57791 4.49803,-8.97205 2.4095,-13.55486 -2.08869,-4.57677 -6.79254,-7.39186 -11.81132,-7.05896 H 374.13334 V 236.4596 c 0,-4.79483 -1.90101,-9.39577 -5.29123,-12.786 -3.39627,-3.39023 -7.99117,-5.29728 -12.786,-5.29728 z"
       id="path34"
       style="stroke-width:1.54982;fill:#ffffff" />
  </g>
</svg>
